<?xml version="1.0" encoding="utf-8"?>
<!-- Generator: Adobe Illustrator 26.5.0, SVG Export Plug-In . SVG Version: 6.00 Build 0)  -->
<svg version="1.1" id="Layer_1" xmlns="http://www.w3.org/2000/svg" xmlns:xlink="http://www.w3.org/1999/xlink" x="0px" y="0px"
	 viewBox="0 0 2560 3427.9" style="enable-background:new 0 0 2560 3427.9;" xml:space="preserve">
<style type="text/css">
	.st0{fill:#FFFFFF;}
	.st1{opacity:0.18;}
	.st2{fill:#11151C;}
	.st3{opacity:0.25;}
	.st4{opacity:0.5;}
	.st5{fill:none;stroke:#11151C;stroke-miterlimit:10;}
	.st6{fill:none;stroke:#11151C;stroke-width:3;stroke-miterlimit:10;}
	.st7{fill:none;stroke:#11151C;stroke-width:2;stroke-miterlimit:10;}
	.st8{opacity:0.75;}
</style>
<rect x="-129.6" y="-10.7" class="st0" width="2800.2" height="3438.6"/>
<g class="st1">
	<g>
		<circle class="st2" cx="212.2" cy="1838.5" r="23.4"/>
	</g>
	<g>
		<path class="st2" d="M809.8,1751.1l-9,327.3l-577.4-238.6L809.8,1751.1 M812.9,1747.6l-600.7,90.9l591.4,244.4L812.9,1747.6
			L812.9,1747.6z"/>
	</g>
	<g>
		<path class="st2" d="M-122.1,1441.2l331.5,395.5l-521.8-146.3L-122.1,1441.2 M-122.2,1439.6l-192,251.4l526.4,147.5L-122.2,1439.6
			L-122.2,1439.6z"/>
	</g>
	<g>
		<path class="st2" d="M262.7,1350.2l422.6,5.6l-412.5,416.6l-56.7,57.9L262.7,1350.2 M260,1347.2l-47.7,491.3l62.6-63.9L692.3,1353
			L260,1347.2L260,1347.2z"/>
	</g>
	<g class="st3">
		<path class="st2" d="M1037.2,1212.3l-223.9,526.5L696,1354.7L1037.2,1212.3 M1042.9,1206.7L692.3,1353l120.6,394.6L1042.9,1206.7
			L1042.9,1206.7z"/>
	</g>
	<g class="st4">
		<path class="st2" d="M514.4,954.8l526.1,251.8l-347.6,145L514.4,954.8 M512.3,952.8l180,400.2l350.5-146.3L512.3,952.8
			L512.3,952.8z"/>
	</g>
	<g>
		<path class="st2" d="M511.8,953.9L689,1347.9L357,992.5L511.8,953.9 M512.3,952.8l-157.3,39.1L692.3,1353L512.3,952.8L512.3,952.8
			z"/>
	</g>
	<g>
		<path class="st2" d="M509.9,954.7L260,1345.3l-150.5-248.7L509.9,954.7 M512.3,952.8L108,1096.1L260,1347.2L512.3,952.8
			L512.3,952.8z"/>
	</g>
	<g class="st3">
		<path class="st2" d="M259,1348.5l14.8,423.8L-120,1440.1L259,1348.5 M260,1347.2l-382.1,92.4l397,335L260,1347.2L260,1347.2z"/>
	</g>
	<line class="st5" x1="108" y1="1096.1" x2="-122.2" y2="1439.6"/>
	<g class="st3">
		<path class="st2" d="M259.9,1348.4L810,1746.7l-535.1,26.8l-586.1-83.2L259.9,1348.4 M260,1347.2l-574.1,343.7l589,83.6l538.1-27
			L260,1347.2L260,1347.2z"/>
	</g>
	<g>
		<circle class="st2" cx="797.3" cy="2085.9" r="19"/>
	</g>
	<g class="st4">
		<circle class="st2" cx="691.7" cy="1348.5" r="19"/>
	</g>
	<g>
		<circle class="st2" cx="761.9" cy="1300.5" r="12.7"/>
	</g>
	<g>
		<circle class="st2" cx="513.2" cy="951.3" r="23.4"/>
	</g>
	<g>
		<circle class="st2" cx="258.3" cy="1347.9" r="9.5"/>
	</g>
	<g>
		<circle class="st2" cx="107.4" cy="1097.3" r="9.5"/>
	</g>
	<g>
		<circle class="st2" cx="357.5" cy="987.5" r="16.5"/>
	</g>
	<g>
		<circle class="st2" cx="284.3" cy="1777.8" r="9.5"/>
	</g>
	<polyline class="st6" points="-121.3,1438.1 357.5,987.5 258.3,1347.9 	"/>
	<polyline class="st7" points="357.5,987.5 1043.7,1205.2 212.2,1838.5 107.4,1097.3 274.9,1774.5 797.3,2085.9 	"/>
</g>
<g class="st1">
	<g>
		<circle class="st2" cx="2538.1" cy="2592.2" r="18.6"/>
	</g>
	<g>
		<path class="st2" d="M2632.8,2121.4l241.6,93.7l-331.3,367L2632.8,2121.4 M2630.5,2117.3l-92.5,474.9l341.5-378.3L2630.5,2117.3
			L2630.5,2117.3z"/>
	</g>
	<g>
		<path class="st2" d="M2535.4,2594.3l-248.7,351.5l-135.7-208.9L2535.4,2594.3 M2538.1,2592.2l-388.7,144.1l137.2,211.2
			L2538.1,2592.2L2538.1,2592.2z"/>
	</g>
	<g>
		<path class="st2" d="M2302.6,2109.9l201.5,419.6l27.5,56.4l-345.5-162.4L2302.6,2109.9 M2302.3,2102.2l-120,322.8l355.7,167.2
			l-31.2-64.1L2302.3,2102.2L2302.3,2102.2z"/>
	</g>
	<g class="st3">
		<path class="st2" d="M2289.7,1807.3l332.7,306.6l-317.3-14.6L2289.7,1807.3 M2286.3,1800.1l16,302.1l328.3,15.1L2286.3,1800.1
			L2286.3,1800.1z"/>
	</g>
	<g class="st4">
		<path class="st2" d="M2285.4,1802.4l15.8,298.9l-344.6,27.7L2285.4,1802.4 M2286.3,1800.1L1954,2130.2l348.3-28L2286.3,1800.1
			L2286.3,1800.1z"/>
	</g>
	<g>
		<path class="st2" d="M2296.4,2103.7l-354,153.3l12.5-125.9L2296.4,2103.7 M2302.3,2102.2l-348.3,28l-12.7,128.4L2302.3,2102.2
			L2302.3,2102.2z"/>
	</g>
	<g>
		<path class="st2" d="M1955,2133.1l225.6,291.2l-226.2,46.2L1955,2133.1 M1954,2130.2l-0.6,341.6l229-46.8L1954,2130.2L1954,2130.2
			z"/>
	</g>
	<g class="st3">
		<path class="st2" d="M2183.2,2426.3l321.2,102.1l-353.8,206.1L2183.2,2426.3 M2182.3,2425l-32.9,311.3l357.4-208.2L2182.3,2425
			L2182.3,2425z"/>
	</g>
	<line class="st5" x1="1953.3" y1="2471.8" x2="2149.4" y2="2736.3"/>
	<g class="st3">
		<path class="st2" d="M2628.8,2119.7l-122.9,408L2287,2944.6l-103.6-519.1L2628.8,2119.7 M2630.5,2117.3L2182.3,2425l104.3,522.6
			l220.2-419.4L2630.5,2117.3L2630.5,2117.3z"/>
	</g>
	<g class="st4">
		<circle class="st2" cx="2298.8" cy="2101.5" r="15.1"/>
	</g>
	<g>
		<circle class="st2" cx="2281.5" cy="2036" r="10.1"/>
	</g>
	<g>
		<circle class="st2" cx="2148.5" cy="2735.3" r="18.6"/>
	</g>
	<g>
		<circle class="st2" cx="1953.1" cy="2129.2" r="18.6"/>
	</g>
	<g>
		<circle class="st2" cx="2182.4" cy="2426.4" r="7.6"/>
	</g>
	<g>
		<circle class="st2" cx="1954.1" cy="2472.6" r="7.6"/>
	</g>
	<g>
		<circle class="st2" cx="1938.6" cy="2255.6" r="13.1"/>
	</g>
	<g>
		<circle class="st2" cx="2511.8" cy="2521.9" r="7.6"/>
	</g>
	<polyline class="st6" points="2148.5,2735.3 1938.6,2255.6 2182.4,2426.4 	"/>
	<polyline class="st7" points="1938.6,2255.6 2285.5,1799.1 2538.1,2592.2 1954.1,2472.6 2506.8,2528.1 2880.2,2219.5 	"/>
	<g class="st8">
		<circle class="st2" cx="2282.7" cy="2943.6" r="18.6"/>
	</g>
</g>
</svg>
