<svg width="223" height="197" viewBox="0 0 223 197" fill="none" xmlns="http://www.w3.org/2000/svg">
<path d="M55.6223 125V115.512H59.0143V114.328H50.9183V115.512H54.2943V125H55.6223ZM65.2058 125.192C68.3578 125.192 70.5178 122.824 70.5178 119.672C70.5178 116.52 68.3578 114.152 65.2058 114.152C62.0538 114.152 59.9098 116.52 59.9098 119.672C59.9098 122.824 62.0538 125.192 65.2058 125.192ZM65.2058 124.008C62.8058 124.008 61.2858 122.152 61.2858 119.672C61.2858 117.176 62.8058 115.336 65.2058 115.336C67.5898 115.336 69.1418 117.176 69.1418 119.672C69.1418 122.152 67.5898 124.008 65.2058 124.008ZM73.9041 125V120.76H76.8641C78.9921 120.76 80.2081 119.288 80.2081 117.544C80.2081 115.8 79.0081 114.328 76.8641 114.328H72.5761V125H73.9041ZM76.7041 119.576H73.9041V115.512H76.7041C77.9681 115.512 78.8321 116.344 78.8321 117.544C78.8321 118.744 77.9681 119.576 76.7041 119.576ZM87.4354 125V114.328H86.1074V125H87.4354ZM91.2635 125V120.76H94.2235C96.3515 120.76 97.5675 119.288 97.5675 117.544C97.5675 115.8 96.3675 114.328 94.2235 114.328H89.9355V125H91.2635ZM94.0635 119.576H91.2635V115.512H94.0635C95.3275 115.512 96.1915 116.344 96.1915 117.544C96.1915 118.744 95.3275 119.576 94.0635 119.576ZM108.222 125V114.328H106.894V118.92H100.654V114.328H99.3261V125H100.654V120.104H106.894V125H108.222ZM115.581 125.192C118.733 125.192 120.893 122.824 120.893 119.672C120.893 116.52 118.733 114.152 115.581 114.152C112.429 114.152 110.285 116.52 110.285 119.672C110.285 122.824 112.429 125.192 115.581 125.192ZM115.581 124.008C113.181 124.008 111.661 122.152 111.661 119.672C111.661 117.176 113.181 115.336 115.581 115.336C117.965 115.336 119.517 117.176 119.517 119.672C119.517 122.152 117.965 124.008 115.581 124.008ZM131.783 125V114.328H130.455V122.664L124.311 114.328H122.951V125H124.279V116.488L130.503 125H131.783ZM141.271 125V123.816H135.607V120.136H141.159V118.952H135.607V115.512H141.271V114.328H134.279V125H141.271ZM156.665 125L152.377 114.328H150.729L146.425 125H147.945L148.889 122.616H154.201L155.145 125H156.665ZM153.817 121.448H149.289L151.545 115.688L153.817 121.448ZM159.389 125V120.76H162.349C164.477 120.76 165.693 119.288 165.693 117.544C165.693 115.8 164.493 114.328 162.349 114.328H158.061V125H159.389ZM162.189 119.576H159.389V115.512H162.189C163.453 115.512 164.317 116.344 164.317 117.544C164.317 118.744 163.453 119.576 162.189 119.576ZM168.779 125V120.76H171.739C173.867 120.76 175.083 119.288 175.083 117.544C175.083 115.8 173.883 114.328 171.739 114.328H167.451V125H168.779ZM171.579 119.576H168.779V115.512H171.579C172.843 115.512 173.707 116.344 173.707 117.544C173.707 118.744 172.843 119.576 171.579 119.576ZM62.1851 140C65.5131 140 67.6571 137.712 67.6571 134.672C67.6571 131.648 65.5131 129.328 62.1851 129.328H58.5371V140H62.1851ZM62.1851 138.816H59.8651V130.512H62.1851C64.8251 130.512 66.2811 132.368 66.2811 134.672C66.2811 136.96 64.7771 138.816 62.1851 138.816ZM76.7322 140V138.816H71.0682V135.136H76.6202V133.952H71.0682V130.512H76.7322V129.328H69.7402V140H76.7322ZM83.6976 140L87.9856 129.328H86.4656L82.8656 138.544L79.2656 129.328H77.7456L82.0496 140H83.6976ZM96.3728 140V138.816H90.7088V135.136H96.2608V133.952H90.7088V130.512H96.3728V129.328H89.3808V140H96.3728ZM104.602 140V138.816H99.6422V129.328H98.3142V140H104.602ZM110.698 140.192C113.85 140.192 116.01 137.824 116.01 134.672C116.01 131.52 113.85 129.152 110.698 129.152C107.546 129.152 105.402 131.52 105.402 134.672C105.402 137.824 107.546 140.192 110.698 140.192ZM110.698 139.008C108.298 139.008 106.778 137.152 106.778 134.672C106.778 132.176 108.298 130.336 110.698 130.336C113.082 130.336 114.634 132.176 114.634 134.672C114.634 137.152 113.082 139.008 110.698 139.008ZM119.396 140V135.76H122.356C124.484 135.76 125.7 134.288 125.7 132.544C125.7 130.8 124.5 129.328 122.356 129.328H118.068V140H119.396ZM122.196 134.576H119.396V130.512H122.196C123.46 130.512 124.324 131.344 124.324 132.544C124.324 133.744 123.46 134.576 122.196 134.576ZM137.907 140V129.328H136.003L132.691 137.552L129.363 129.328H127.459V140H128.787V131.024L132.419 140H132.963L136.579 131.024V140H137.907ZM147.388 140V138.816H141.724V135.136H147.276V133.952H141.724V130.512H147.388V129.328H140.396V140H147.388ZM158.338 140V129.328H157.01V137.664L150.866 129.328H149.506V140H150.834V131.488L157.058 140H158.338ZM164.802 140V130.512H168.194V129.328H160.098V130.512H163.474V140H164.802ZM81.2962 155.192C83.1842 155.192 84.4642 154.296 85.3602 153.064L84.2402 152.456C83.6322 153.352 82.5122 154.008 81.2962 154.008C78.9602 154.008 77.1842 152.2 77.1842 149.672C77.1842 147.112 78.9602 145.336 81.2962 145.336C82.5122 145.336 83.6322 145.976 84.2402 146.888L85.3442 146.264C84.4962 145.048 83.1842 144.152 81.2962 144.152C78.2242 144.152 75.8082 146.392 75.8082 149.672C75.8082 152.952 78.2242 155.192 81.2962 155.192ZM91.9167 155.192C95.0687 155.192 97.2287 152.824 97.2287 149.672C97.2287 146.52 95.0687 144.152 91.9167 144.152C88.7647 144.152 86.6207 146.52 86.6207 149.672C86.6207 152.824 88.7647 155.192 91.9167 155.192ZM91.9167 154.008C89.5167 154.008 87.9967 152.152 87.9967 149.672C87.9967 147.176 89.5167 145.336 91.9167 145.336C94.3007 145.336 95.8527 147.176 95.8527 149.672C95.8527 152.152 94.3007 154.008 91.9167 154.008ZM109.735 155V144.328H107.831L104.519 152.552L101.191 144.328H99.2871V155H100.615V146.024L104.247 155H104.791L108.407 146.024V155H109.735ZM113.553 155V150.76H116.513C118.641 150.76 119.857 149.288 119.857 147.544C119.857 145.8 118.657 144.328 116.513 144.328H112.225V155H113.553ZM116.353 149.576H113.553V145.512H116.353C117.617 145.512 118.481 146.344 118.481 147.544C118.481 148.744 117.617 149.576 116.353 149.576ZM129.517 155L125.229 144.328H123.581L119.277 155H120.797L121.741 152.616H127.053L127.997 155H129.517ZM126.669 151.448H122.141L124.397 145.688L126.669 151.448ZM139.744 155V144.328H138.416V152.664L132.272 144.328H130.912V155H132.24V146.488L138.464 155H139.744ZM146.672 155V150.488L150.864 144.328H149.312L146 149.288L142.688 144.328H141.136L145.344 150.488V155H146.672Z" fill="black"/>
<path d="M55.6223 125V125.25H55.8723V125H55.6223ZM55.6223 115.512V115.262H55.3723V115.512H55.6223ZM59.0143 115.512V115.762H59.2643V115.512H59.0143ZM59.0143 114.328H59.2643V114.078H59.0143V114.328ZM50.9183 114.328V114.078H50.6683V114.328H50.9183ZM50.9183 115.512H50.6683V115.762H50.9183V115.512ZM54.2943 115.512H54.5443V115.262H54.2943V115.512ZM54.2943 125H54.0443V125.25H54.2943V125ZM55.8723 125V115.512H55.3723V125H55.8723ZM55.6223 115.762H59.0143V115.262H55.6223V115.762ZM59.2643 115.512V114.328H58.7643V115.512H59.2643ZM59.0143 114.078H50.9183V114.578H59.0143V114.078ZM50.6683 114.328V115.512H51.1683V114.328H50.6683ZM50.9183 115.762H54.2943V115.262H50.9183V115.762ZM54.0443 115.512V125H54.5443V115.512H54.0443ZM54.2943 125.25H55.6223V124.75H54.2943V125.25ZM65.2058 125.442C68.5084 125.442 70.7678 122.949 70.7678 119.672H70.2678C70.2678 122.699 68.2071 124.942 65.2058 124.942V125.442ZM70.7678 119.672C70.7678 116.395 68.5084 113.902 65.2058 113.902V114.402C68.2071 114.402 70.2678 116.645 70.2678 119.672H70.7678ZM65.2058 113.902C61.9021 113.902 59.6598 116.396 59.6598 119.672H60.1598C60.1598 116.644 62.2054 114.402 65.2058 114.402V113.902ZM59.6598 119.672C59.6598 122.948 61.9021 125.442 65.2058 125.442V124.942C62.2054 124.942 60.1598 122.7 60.1598 119.672H59.6598ZM65.2058 123.758C64.0748 123.758 63.1642 123.323 62.5336 122.605C61.9002 121.884 61.5358 120.862 61.5358 119.672H61.0358C61.0358 120.962 61.4313 122.108 62.1579 122.935C62.8873 123.765 63.9367 124.258 65.2058 124.258V123.758ZM61.5358 119.672C61.5358 118.474 61.9003 117.452 62.5334 116.733C63.1637 116.018 64.0741 115.586 65.2058 115.586V115.086C63.9374 115.086 62.8878 115.574 62.1581 116.403C61.4312 117.228 61.0358 118.374 61.0358 119.672H61.5358ZM65.2058 115.586C66.3292 115.586 67.2442 116.018 67.8809 116.734C68.52 117.453 68.8918 118.475 68.8918 119.672H69.3918C69.3918 118.373 68.9875 117.227 68.2546 116.402C67.5193 115.574 66.4663 115.086 65.2058 115.086V115.586ZM68.8918 119.672C68.8918 120.861 68.5201 121.883 67.8807 122.604C67.2436 123.323 66.3285 123.758 65.2058 123.758V124.258C66.467 124.258 67.5199 123.765 68.2548 122.936C68.9874 122.109 69.3918 120.963 69.3918 119.672H68.8918ZM73.9041 125V125.25H74.1541V125H73.9041ZM73.9041 120.76V120.51H73.6541V120.76H73.9041ZM72.5761 114.328V114.078H72.3261V114.328H72.5761ZM72.5761 125H72.3261V125.25H72.5761V125ZM73.9041 119.576H73.6541V119.826H73.9041V119.576ZM73.9041 115.512V115.262H73.6541V115.512H73.9041ZM74.1541 125V120.76H73.6541V125H74.1541ZM73.9041 121.01H76.8641V120.51H73.9041V121.01ZM76.8641 121.01C77.9885 121.01 78.8915 120.62 79.5133 119.98C80.1334 119.343 80.4581 118.474 80.4581 117.544H79.9581C79.9581 118.358 79.6749 119.097 79.1549 119.632C78.6367 120.164 77.8677 120.51 76.8641 120.51V121.01ZM80.4581 117.544C80.4581 116.615 80.1379 115.746 79.5196 115.108C78.8995 114.468 77.9961 114.078 76.8641 114.078V114.578C77.8762 114.578 78.6448 114.924 79.1606 115.456C79.6783 115.99 79.9581 116.729 79.9581 117.544H80.4581ZM76.8641 114.078H72.5761V114.578H76.8641V114.078ZM72.3261 114.328V125H72.8261V114.328H72.3261ZM72.5761 125.25H73.9041V124.75H72.5761V125.25ZM76.7041 119.326H73.9041V119.826H76.7041V119.326ZM74.1541 119.576V115.512H73.6541V119.576H74.1541ZM73.9041 115.762H76.7041V115.262H73.9041V115.762ZM76.7041 115.762C77.2806 115.762 77.7478 115.951 78.0693 116.259C78.3899 116.566 78.5821 117.006 78.5821 117.544H79.0821C79.0821 116.882 78.8424 116.306 78.415 115.897C77.9884 115.489 77.3917 115.262 76.7041 115.262V115.762ZM78.5821 117.544C78.5821 118.082 78.3899 118.522 78.0693 118.829C77.7478 119.137 77.2806 119.326 76.7041 119.326V119.826C77.3917 119.826 77.9884 119.599 78.415 119.191C78.8424 118.782 79.0821 118.206 79.0821 117.544H78.5821ZM87.4354 125V125.25H87.6854V125H87.4354ZM87.4354 114.328H87.6854V114.078H87.4354V114.328ZM86.1074 114.328V114.078H85.8574V114.328H86.1074ZM86.1074 125H85.8574V125.25H86.1074V125ZM87.6854 125V114.328H87.1854V125H87.6854ZM87.4354 114.078H86.1074V114.578H87.4354V114.078ZM85.8574 114.328V125H86.3574V114.328H85.8574ZM86.1074 125.25H87.4354V124.75H86.1074V125.25ZM91.2635 125V125.25H91.5135V125H91.2635ZM91.2635 120.76V120.51H91.0135V120.76H91.2635ZM89.9355 114.328V114.078H89.6855V114.328H89.9355ZM89.9355 125H89.6855V125.25H89.9355V125ZM91.2635 119.576H91.0135V119.826H91.2635V119.576ZM91.2635 115.512V115.262H91.0135V115.512H91.2635ZM91.5135 125V120.76H91.0135V125H91.5135ZM91.2635 121.01H94.2235V120.51H91.2635V121.01ZM94.2235 121.01C95.3479 121.01 96.2509 120.62 96.8727 119.98C97.4927 119.343 97.8175 118.474 97.8175 117.544H97.3175C97.3175 118.358 97.0343 119.097 96.5143 119.632C95.9961 120.164 95.2271 120.51 94.2235 120.51V121.01ZM97.8175 117.544C97.8175 116.615 97.4973 115.746 96.879 115.108C96.2588 114.468 95.3555 114.078 94.2235 114.078V114.578C95.2355 114.578 96.0042 114.924 96.52 115.456C97.0377 115.99 97.3175 116.729 97.3175 117.544H97.8175ZM94.2235 114.078H89.9355V114.578H94.2235V114.078ZM89.6855 114.328V125H90.1855V114.328H89.6855ZM89.9355 125.25H91.2635V124.75H89.9355V125.25ZM94.0635 119.326H91.2635V119.826H94.0635V119.326ZM91.5135 119.576V115.512H91.0135V119.576H91.5135ZM91.2635 115.762H94.0635V115.262H91.2635V115.762ZM94.0635 115.762C94.6399 115.762 95.1072 115.951 95.4286 116.259C95.7493 116.566 95.9415 117.006 95.9415 117.544H96.4415C96.4415 116.882 96.2017 116.306 95.7744 115.897C95.3478 115.489 94.7511 115.262 94.0635 115.262V115.762ZM95.9415 117.544C95.9415 118.082 95.7493 118.522 95.4286 118.829C95.1072 119.137 94.6399 119.326 94.0635 119.326V119.826C94.7511 119.826 95.3478 119.599 95.7744 119.191C96.2017 118.782 96.4415 118.206 96.4415 117.544H95.9415ZM108.222 125V125.25H108.472V125H108.222ZM108.222 114.328H108.472V114.078H108.222V114.328ZM106.894 114.328V114.078H106.644V114.328H106.894ZM106.894 118.92V119.17H107.144V118.92H106.894ZM100.654 118.92H100.404V119.17H100.654V118.92ZM100.654 114.328H100.904V114.078H100.654V114.328ZM99.3261 114.328V114.078H99.0761V114.328H99.3261ZM99.3261 125H99.0761V125.25H99.3261V125ZM100.654 125V125.25H100.904V125H100.654ZM100.654 120.104V119.854H100.404V120.104H100.654ZM106.894 120.104H107.144V119.854H106.894V120.104ZM106.894 125H106.644V125.25H106.894V125ZM108.472 125V114.328H107.972V125H108.472ZM108.222 114.078H106.894V114.578H108.222V114.078ZM106.644 114.328V118.92H107.144V114.328H106.644ZM106.894 118.67H100.654V119.17H106.894V118.67ZM100.904 118.92V114.328H100.404V118.92H100.904ZM100.654 114.078H99.3261V114.578H100.654V114.078ZM99.0761 114.328V125H99.5761V114.328H99.0761ZM99.3261 125.25H100.654V124.75H99.3261V125.25ZM100.904 125V120.104H100.404V125H100.904ZM100.654 120.354H106.894V119.854H100.654V120.354ZM106.644 120.104V125H107.144V120.104H106.644ZM106.894 125.25H108.222V124.75H106.894V125.25ZM115.581 125.442C118.883 125.442 121.143 122.949 121.143 119.672H120.643C120.643 122.699 118.582 124.942 115.581 124.942V125.442ZM121.143 119.672C121.143 116.395 118.883 113.902 115.581 113.902V114.402C118.582 114.402 120.643 116.645 120.643 119.672H121.143ZM115.581 113.902C112.277 113.902 110.035 116.396 110.035 119.672H110.535C110.535 116.644 112.58 114.402 115.581 114.402V113.902ZM110.035 119.672C110.035 122.948 112.277 125.442 115.581 125.442V124.942C112.58 124.942 110.535 122.7 110.535 119.672H110.035ZM115.581 123.758C114.45 123.758 113.539 123.323 112.909 122.605C112.275 121.884 111.911 120.862 111.911 119.672H111.411C111.411 120.962 111.806 122.108 112.533 122.935C113.262 123.765 114.312 124.258 115.581 124.258V123.758ZM111.911 119.672C111.911 118.474 112.275 117.452 112.908 116.733C113.539 116.018 114.449 115.586 115.581 115.586V115.086C114.312 115.086 113.263 115.574 112.533 116.403C111.806 117.228 111.411 118.374 111.411 119.672H111.911ZM115.581 115.586C116.704 115.586 117.619 116.018 118.256 116.734C118.895 117.453 119.267 118.475 119.267 119.672H119.767C119.767 118.373 119.363 117.227 118.63 116.402C117.894 115.574 116.841 115.086 115.581 115.086V115.586ZM119.267 119.672C119.267 120.861 118.895 121.883 118.256 122.604C117.619 123.323 116.703 123.758 115.581 123.758V124.258C116.842 124.258 117.895 123.765 118.63 122.936C119.362 122.109 119.767 120.963 119.767 119.672H119.267ZM131.783 125V125.25H132.033V125H131.783ZM131.783 114.328H132.033V114.078H131.783V114.328ZM130.455 114.328V114.078H130.205V114.328H130.455ZM130.455 122.664L130.254 122.812L130.705 123.425V122.664H130.455ZM124.311 114.328L124.512 114.18L124.437 114.078H124.311V114.328ZM122.951 114.328V114.078H122.701V114.328H122.951ZM122.951 125H122.701V125.25H122.951V125ZM124.279 125V125.25H124.529V125H124.279ZM124.279 116.488L124.481 116.34L124.029 115.723V116.488H124.279ZM130.503 125L130.301 125.148L130.376 125.25H130.503V125ZM132.033 125V114.328H131.533V125H132.033ZM131.783 114.078H130.455V114.578H131.783V114.078ZM130.205 114.328V122.664H130.705V114.328H130.205ZM130.656 122.516L124.512 114.18L124.11 114.476L130.254 122.812L130.656 122.516ZM124.311 114.078H122.951V114.578H124.311V114.078ZM122.701 114.328V125H123.201V114.328H122.701ZM122.951 125.25H124.279V124.75H122.951V125.25ZM124.529 125V116.488H124.029V125H124.529ZM124.077 116.636L130.301 125.148L130.705 124.852L124.481 116.34L124.077 116.636ZM130.503 125.25H131.783V124.75H130.503V125.25ZM141.271 125V125.25H141.521V125H141.271ZM141.271 123.816H141.521V123.566H141.271V123.816ZM135.607 123.816H135.357V124.066H135.607V123.816ZM135.607 120.136V119.886H135.357V120.136H135.607ZM141.159 120.136V120.386H141.409V120.136H141.159ZM141.159 118.952H141.409V118.702H141.159V118.952ZM135.607 118.952H135.357V119.202H135.607V118.952ZM135.607 115.512V115.262H135.357V115.512H135.607ZM141.271 115.512V115.762H141.521V115.512H141.271ZM141.271 114.328H141.521V114.078H141.271V114.328ZM134.279 114.328V114.078H134.029V114.328H134.279ZM134.279 125H134.029V125.25H134.279V125ZM141.521 125V123.816H141.021V125H141.521ZM141.271 123.566H135.607V124.066H141.271V123.566ZM135.857 123.816V120.136H135.357V123.816H135.857ZM135.607 120.386H141.159V119.886H135.607V120.386ZM141.409 120.136V118.952H140.909V120.136H141.409ZM141.159 118.702H135.607V119.202H141.159V118.702ZM135.857 118.952V115.512H135.357V118.952H135.857ZM135.607 115.762H141.271V115.262H135.607V115.762ZM141.521 115.512V114.328H141.021V115.512H141.521ZM141.271 114.078H134.279V114.578H141.271V114.078ZM134.029 114.328V125H134.529V114.328H134.029ZM134.279 125.25H141.271V124.75H134.279V125.25ZM156.665 125V125.25H157.035L156.897 124.907L156.665 125ZM152.377 114.328L152.609 114.235L152.546 114.078H152.377V114.328ZM150.729 114.328V114.078H150.561L150.497 114.234L150.729 114.328ZM146.425 125L146.193 124.906L146.055 125.25H146.425V125ZM147.945 125V125.25H148.115L148.178 125.092L147.945 125ZM148.889 122.616V122.366H148.719L148.657 122.524L148.889 122.616ZM154.201 122.616L154.434 122.524L154.371 122.366H154.201V122.616ZM155.145 125L154.913 125.092L154.975 125.25H155.145V125ZM153.817 121.448V121.698H154.185L154.05 121.356L153.817 121.448ZM149.289 121.448L149.056 121.357L148.923 121.698H149.289V121.448ZM151.545 115.688L151.778 115.596L151.544 115.005L151.312 115.597L151.545 115.688ZM156.897 124.907L152.609 114.235L152.145 114.421L156.433 125.093L156.897 124.907ZM152.377 114.078H150.729V114.578H152.377V114.078ZM150.497 114.234L146.193 124.906L146.657 125.094L150.961 114.422L150.497 114.234ZM146.425 125.25H147.945V124.75H146.425V125.25ZM148.178 125.092L149.122 122.708L148.657 122.524L147.713 124.908L148.178 125.092ZM148.889 122.866H154.201V122.366H148.889V122.866ZM153.969 122.708L154.913 125.092L155.378 124.908L154.434 122.524L153.969 122.708ZM155.145 125.25H156.665V124.75H155.145V125.25ZM153.817 121.198H149.289V121.698H153.817V121.198ZM149.522 121.539L151.778 115.779L151.312 115.597L149.056 121.357L149.522 121.539ZM151.313 115.78L153.585 121.54L154.05 121.356L151.778 115.596L151.313 115.78ZM159.389 125V125.25H159.639V125H159.389ZM159.389 120.76V120.51H159.139V120.76H159.389ZM158.061 114.328V114.078H157.811V114.328H158.061ZM158.061 125H157.811V125.25H158.061V125ZM159.389 119.576H159.139V119.826H159.389V119.576ZM159.389 115.512V115.262H159.139V115.512H159.389ZM159.639 125V120.76H159.139V125H159.639ZM159.389 121.01H162.349V120.51H159.389V121.01ZM162.349 121.01C163.473 121.01 164.376 120.62 164.998 119.98C165.618 119.343 165.943 118.474 165.943 117.544H165.443C165.443 118.358 165.159 119.097 164.639 119.632C164.121 120.164 163.352 120.51 162.349 120.51V121.01ZM165.943 117.544C165.943 116.615 165.622 115.746 165.004 115.108C164.384 114.468 163.48 114.078 162.349 114.078V114.578C163.361 114.578 164.129 114.924 164.645 115.456C165.163 115.99 165.443 116.729 165.443 117.544H165.943ZM162.349 114.078H158.061V114.578H162.349V114.078ZM157.811 114.328V125H158.311V114.328H157.811ZM158.061 125.25H159.389V124.75H158.061V125.25ZM162.189 119.326H159.389V119.826H162.189V119.326ZM159.639 119.576V115.512H159.139V119.576H159.639ZM159.389 115.762H162.189V115.262H159.389V115.762ZM162.189 115.762C162.765 115.762 163.232 115.951 163.554 116.259C163.874 116.566 164.067 117.006 164.067 117.544H164.567C164.567 116.882 164.327 116.306 163.899 115.897C163.473 115.489 162.876 115.262 162.189 115.262V115.762ZM164.067 117.544C164.067 118.082 163.874 118.522 163.554 118.829C163.232 119.137 162.765 119.326 162.189 119.326V119.826C162.876 119.826 163.473 119.599 163.899 119.191C164.327 118.782 164.567 118.206 164.567 117.544H164.067ZM168.779 125V125.25H169.029V125H168.779ZM168.779 120.76V120.51H168.529V120.76H168.779ZM167.451 114.328V114.078H167.201V114.328H167.451ZM167.451 125H167.201V125.25H167.451V125ZM168.779 119.576H168.529V119.826H168.779V119.576ZM168.779 115.512V115.262H168.529V115.512H168.779ZM169.029 125V120.76H168.529V125H169.029ZM168.779 121.01H171.739V120.51H168.779V121.01ZM171.739 121.01C172.864 121.01 173.767 120.62 174.388 119.98C175.008 119.343 175.333 118.474 175.333 117.544H174.833C174.833 118.358 174.55 119.097 174.03 119.632C173.512 120.164 172.743 120.51 171.739 120.51V121.01ZM175.333 117.544C175.333 116.615 175.013 115.746 174.395 115.108C173.774 114.468 172.871 114.078 171.739 114.078V114.578C172.751 114.578 173.52 114.924 174.036 115.456C174.553 115.99 174.833 116.729 174.833 117.544H175.333ZM171.739 114.078H167.451V114.578H171.739V114.078ZM167.201 114.328V125H167.701V114.328H167.201ZM167.451 125.25H168.779V124.75H167.451V125.25ZM171.579 119.326H168.779V119.826H171.579V119.326ZM169.029 119.576V115.512H168.529V119.576H169.029ZM168.779 115.762H171.579V115.262H168.779V115.762ZM171.579 115.762C172.156 115.762 172.623 115.951 172.944 116.259C173.265 116.566 173.457 117.006 173.457 117.544H173.957C173.957 116.882 173.717 116.306 173.29 115.897C172.863 115.489 172.267 115.262 171.579 115.262V115.762ZM173.457 117.544C173.457 118.082 173.265 118.522 172.944 118.829C172.623 119.137 172.156 119.326 171.579 119.326V119.826C172.267 119.826 172.863 119.599 173.29 119.191C173.717 118.782 173.957 118.206 173.957 117.544H173.457ZM58.5371 129.328V129.078H58.2871V129.328H58.5371ZM58.5371 140H58.2871V140.25H58.5371V140ZM59.8651 138.816H59.6151V139.066H59.8651V138.816ZM59.8651 130.512V130.262H59.6151V130.512H59.8651ZM62.1851 140.25C63.9082 140.25 65.3421 139.657 66.3458 138.653C67.349 137.65 67.9071 136.252 67.9071 134.672H67.4071C67.4071 136.132 66.8931 137.398 65.9923 138.299C65.092 139.199 63.7899 139.75 62.1851 139.75V140.25ZM67.9071 134.672C67.9071 133.1 67.349 131.699 66.3464 130.69C65.3431 129.68 63.9092 129.078 62.1851 129.078V129.578C63.7889 129.578 65.091 130.136 65.9917 131.042C66.8932 131.949 67.4071 133.22 67.4071 134.672H67.9071ZM62.1851 129.078H58.5371V129.578H62.1851V129.078ZM58.2871 129.328V140H58.7871V129.328H58.2871ZM58.5371 140.25H62.1851V139.75H58.5371V140.25ZM62.1851 138.566H59.8651V139.066H62.1851V138.566ZM60.1151 138.816V130.512H59.6151V138.816H60.1151ZM59.8651 130.762H62.1851V130.262H59.8651V130.762ZM62.1851 130.762C63.4429 130.762 64.3976 131.202 65.0393 131.898C65.6838 132.596 66.0311 133.572 66.0311 134.672H66.5311C66.5311 133.468 66.1504 132.364 65.4068 131.558C64.6605 130.75 63.5672 130.262 62.1851 130.262V130.762ZM66.0311 134.672C66.0311 135.762 65.6733 136.734 65.0223 137.431C64.3736 138.126 63.4179 138.566 62.1851 138.566V139.066C63.5442 139.066 64.6365 138.578 65.3878 137.773C66.1368 136.97 66.5311 135.87 66.5311 134.672H66.0311ZM76.7322 140V140.25H76.9822V140H76.7322ZM76.7322 138.816H76.9822V138.566H76.7322V138.816ZM71.0682 138.816H70.8182V139.066H71.0682V138.816ZM71.0682 135.136V134.886H70.8182V135.136H71.0682ZM76.6202 135.136V135.386H76.8702V135.136H76.6202ZM76.6202 133.952H76.8702V133.702H76.6202V133.952ZM71.0682 133.952H70.8182V134.202H71.0682V133.952ZM71.0682 130.512V130.262H70.8182V130.512H71.0682ZM76.7322 130.512V130.762H76.9822V130.512H76.7322ZM76.7322 129.328H76.9822V129.078H76.7322V129.328ZM69.7402 129.328V129.078H69.4902V129.328H69.7402ZM69.7402 140H69.4902V140.25H69.7402V140ZM76.9822 140V138.816H76.4822V140H76.9822ZM76.7322 138.566H71.0682V139.066H76.7322V138.566ZM71.3182 138.816V135.136H70.8182V138.816H71.3182ZM71.0682 135.386H76.6202V134.886H71.0682V135.386ZM76.8702 135.136V133.952H76.3702V135.136H76.8702ZM76.6202 133.702H71.0682V134.202H76.6202V133.702ZM71.3182 133.952V130.512H70.8182V133.952H71.3182ZM71.0682 130.762H76.7322V130.262H71.0682V130.762ZM76.9822 130.512V129.328H76.4822V130.512H76.9822ZM76.7322 129.078H69.7402V129.578H76.7322V129.078ZM69.4902 129.328V140H69.9902V129.328H69.4902ZM69.7402 140.25H76.7322V139.75H69.7402V140.25ZM83.6976 140V140.25H83.8665L83.9295 140.093L83.6976 140ZM87.9856 129.328L88.2175 129.421L88.3554 129.078H87.9856V129.328ZM86.4656 129.328V129.078H86.2948L86.2327 129.237L86.4656 129.328ZM82.8656 138.544L82.6327 138.635L82.8656 139.231L83.0984 138.635L82.8656 138.544ZM79.2656 129.328L79.4984 129.237L79.4363 129.078H79.2656V129.328ZM77.7456 129.328V129.078H77.3752L77.5137 129.422L77.7456 129.328ZM82.0496 140L81.8177 140.094L81.8808 140.25H82.0496V140ZM83.9295 140.093L88.2175 129.421L87.7536 129.235L83.4656 139.907L83.9295 140.093ZM87.9856 129.078H86.4656V129.578H87.9856V129.078ZM86.2327 129.237L82.6327 138.453L83.0984 138.635L86.6984 129.419L86.2327 129.237ZM83.0984 138.453L79.4984 129.237L79.0327 129.419L82.6327 138.635L83.0984 138.453ZM79.2656 129.078H77.7456V129.578H79.2656V129.078ZM77.5137 129.422L81.8177 140.094L82.2814 139.906L77.9774 129.234L77.5137 129.422ZM82.0496 140.25H83.6976V139.75H82.0496V140.25ZM96.3728 140V140.25H96.6228V140H96.3728ZM96.3728 138.816H96.6228V138.566H96.3728V138.816ZM90.7088 138.816H90.4588V139.066H90.7088V138.816ZM90.7088 135.136V134.886H90.4588V135.136H90.7088ZM96.2608 135.136V135.386H96.5108V135.136H96.2608ZM96.2608 133.952H96.5108V133.702H96.2608V133.952ZM90.7088 133.952H90.4588V134.202H90.7088V133.952ZM90.7088 130.512V130.262H90.4588V130.512H90.7088ZM96.3728 130.512V130.762H96.6228V130.512H96.3728ZM96.3728 129.328H96.6228V129.078H96.3728V129.328ZM89.3808 129.328V129.078H89.1308V129.328H89.3808ZM89.3808 140H89.1308V140.25H89.3808V140ZM96.6228 140V138.816H96.1228V140H96.6228ZM96.3728 138.566H90.7088V139.066H96.3728V138.566ZM90.9588 138.816V135.136H90.4588V138.816H90.9588ZM90.7088 135.386H96.2608V134.886H90.7088V135.386ZM96.5108 135.136V133.952H96.0108V135.136H96.5108ZM96.2608 133.702H90.7088V134.202H96.2608V133.702ZM90.9588 133.952V130.512H90.4588V133.952H90.9588ZM90.7088 130.762H96.3728V130.262H90.7088V130.762ZM96.6228 130.512V129.328H96.1228V130.512H96.6228ZM96.3728 129.078H89.3808V129.578H96.3728V129.078ZM89.1308 129.328V140H89.6308V129.328H89.1308ZM89.3808 140.25H96.3728V139.75H89.3808V140.25ZM104.602 140V140.25H104.852V140H104.602ZM104.602 138.816H104.852V138.566H104.602V138.816ZM99.6422 138.816H99.3922V139.066H99.6422V138.816ZM99.6422 129.328H99.8922V129.078H99.6422V129.328ZM98.3142 129.328V129.078H98.0642V129.328H98.3142ZM98.3142 140H98.0642V140.25H98.3142V140ZM104.852 140V138.816H104.352V140H104.852ZM104.602 138.566H99.6422V139.066H104.602V138.566ZM99.8922 138.816V129.328H99.3922V138.816H99.8922ZM99.6422 129.078H98.3142V129.578H99.6422V129.078ZM98.0642 129.328V140H98.5642V129.328H98.0642ZM98.3142 140.25H104.602V139.75H98.3142V140.25ZM110.698 140.442C114.001 140.442 116.26 137.949 116.26 134.672H115.76C115.76 137.699 113.699 139.942 110.698 139.942V140.442ZM116.26 134.672C116.26 131.395 114.001 128.902 110.698 128.902V129.402C113.699 129.402 115.76 131.645 115.76 134.672H116.26ZM110.698 128.902C107.394 128.902 105.152 131.396 105.152 134.672H105.652C105.652 131.644 107.698 129.402 110.698 129.402V128.902ZM105.152 134.672C105.152 137.948 107.394 140.442 110.698 140.442V139.942C107.698 139.942 105.652 137.7 105.652 134.672H105.152ZM110.698 138.758C109.567 138.758 108.656 138.323 108.026 137.605C107.392 136.884 107.028 135.862 107.028 134.672H106.528C106.528 135.962 106.924 137.108 107.65 137.935C108.379 138.765 109.429 139.258 110.698 139.258V138.758ZM107.028 134.672C107.028 133.474 107.393 132.452 108.026 131.733C108.656 131.018 109.566 130.586 110.698 130.586V130.086C109.43 130.086 108.38 130.574 107.65 131.403C106.923 132.228 106.528 133.374 106.528 134.672H107.028ZM110.698 130.586C111.821 130.586 112.736 131.018 113.373 131.734C114.012 132.453 114.384 133.475 114.384 134.672H114.884C114.884 133.373 114.48 132.227 113.747 131.402C113.012 130.574 111.959 130.086 110.698 130.086V130.586ZM114.384 134.672C114.384 135.861 114.012 136.883 113.373 137.604C112.736 138.323 111.821 138.758 110.698 138.758V139.258C111.959 139.258 113.012 138.765 113.747 137.936C114.48 137.109 114.884 135.963 114.884 134.672H114.384ZM119.396 140V140.25H119.646V140H119.396ZM119.396 135.76V135.51H119.146V135.76H119.396ZM118.068 129.328V129.078H117.818V129.328H118.068ZM118.068 140H117.818V140.25H118.068V140ZM119.396 134.576H119.146V134.826H119.396V134.576ZM119.396 130.512V130.262H119.146V130.512H119.396ZM119.646 140V135.76H119.146V140H119.646ZM119.396 136.01H122.356V135.51H119.396V136.01ZM122.356 136.01C123.481 136.01 124.384 135.62 125.006 134.98C125.626 134.343 125.95 133.474 125.95 132.544H125.45C125.45 133.358 125.167 134.097 124.647 134.632C124.129 135.164 123.36 135.51 122.356 135.51V136.01ZM125.95 132.544C125.95 131.615 125.63 130.746 125.012 130.108C124.392 129.468 123.488 129.078 122.356 129.078V129.578C123.368 129.578 124.137 129.924 124.653 130.456C125.17 130.99 125.45 131.729 125.45 132.544H125.95ZM122.356 129.078H118.068V129.578H122.356V129.078ZM117.818 129.328V140H118.318V129.328H117.818ZM118.068 140.25H119.396V139.75H118.068V140.25ZM122.196 134.326H119.396V134.826H122.196V134.326ZM119.646 134.576V130.512H119.146V134.576H119.646ZM119.396 130.762H122.196V130.262H119.396V130.762ZM122.196 130.762C122.773 130.762 123.24 130.951 123.561 131.259C123.882 131.566 124.074 132.006 124.074 132.544H124.574C124.574 131.882 124.335 131.306 123.907 130.897C123.481 130.489 122.884 130.262 122.196 130.262V130.762ZM124.074 132.544C124.074 133.082 123.882 133.522 123.561 133.829C123.24 134.137 122.773 134.326 122.196 134.326V134.826C122.884 134.826 123.481 134.599 123.907 134.191C124.335 133.782 124.574 133.206 124.574 132.544H124.074ZM137.907 140V140.25H138.157V140H137.907ZM137.907 129.328H138.157V129.078H137.907V129.328ZM136.003 129.328V129.078H135.834L135.771 129.235L136.003 129.328ZM132.691 137.552L132.459 137.646L132.691 138.22L132.923 137.645L132.691 137.552ZM129.363 129.328L129.595 129.234L129.531 129.078H129.363V129.328ZM127.459 129.328V129.078H127.209V129.328H127.459ZM127.459 140H127.209V140.25H127.459V140ZM128.787 140V140.25H129.037V140H128.787ZM128.787 131.024L129.019 130.93L128.537 131.024H128.787ZM132.419 140L132.187 140.094L132.25 140.25H132.419V140ZM132.963 140V140.25H133.132L133.195 140.093L132.963 140ZM136.579 131.024H136.829L136.347 130.931L136.579 131.024ZM136.579 140H136.329V140.25H136.579V140ZM138.157 140V129.328H137.657V140H138.157ZM137.907 129.078H136.003V129.578H137.907V129.078ZM135.771 129.235L132.459 137.459L132.923 137.645L136.235 129.421L135.771 129.235ZM132.923 137.458L129.595 129.234L129.131 129.422L132.459 137.646L132.923 137.458ZM129.363 129.078H127.459V129.578H129.363V129.078ZM127.209 129.328V140H127.709V129.328H127.209ZM127.459 140.25H128.787V139.75H127.459V140.25ZM129.037 140V131.024H128.537V140H129.037ZM128.555 131.118L132.187 140.094L132.651 139.906L129.019 130.93L128.555 131.118ZM132.419 140.25H132.963V139.75H132.419V140.25ZM133.195 140.093L136.811 131.117L136.347 130.931L132.731 139.907L133.195 140.093ZM136.329 131.024V140H136.829V131.024H136.329ZM136.579 140.25H137.907V139.75H136.579V140.25ZM147.388 140V140.25H147.638V140H147.388ZM147.388 138.816H147.638V138.566H147.388V138.816ZM141.724 138.816H141.474V139.066H141.724V138.816ZM141.724 135.136V134.886H141.474V135.136H141.724ZM147.276 135.136V135.386H147.526V135.136H147.276ZM147.276 133.952H147.526V133.702H147.276V133.952ZM141.724 133.952H141.474V134.202H141.724V133.952ZM141.724 130.512V130.262H141.474V130.512H141.724ZM147.388 130.512V130.762H147.638V130.512H147.388ZM147.388 129.328H147.638V129.078H147.388V129.328ZM140.396 129.328V129.078H140.146V129.328H140.396ZM140.396 140H140.146V140.25H140.396V140ZM147.638 140V138.816H147.138V140H147.638ZM147.388 138.566H141.724V139.066H147.388V138.566ZM141.974 138.816V135.136H141.474V138.816H141.974ZM141.724 135.386H147.276V134.886H141.724V135.386ZM147.526 135.136V133.952H147.026V135.136H147.526ZM147.276 133.702H141.724V134.202H147.276V133.702ZM141.974 133.952V130.512H141.474V133.952H141.974ZM141.724 130.762H147.388V130.262H141.724V130.762ZM147.638 130.512V129.328H147.138V130.512H147.638ZM147.388 129.078H140.396V129.578H147.388V129.078ZM140.146 129.328V140H140.646V129.328H140.146ZM140.396 140.25H147.388V139.75H140.396V140.25ZM158.338 140V140.25H158.588V140H158.338ZM158.338 129.328H158.588V129.078H158.338V129.328ZM157.01 129.328V129.078H156.76V129.328H157.01ZM157.01 137.664L156.809 137.812L157.26 138.425V137.664H157.01ZM150.866 129.328L151.067 129.18L150.992 129.078H150.866V129.328ZM149.506 129.328V129.078H149.256V129.328H149.506ZM149.506 140H149.256V140.25H149.506V140ZM150.834 140V140.25H151.084V140H150.834ZM150.834 131.488L151.036 131.34L150.584 130.723V131.488H150.834ZM157.058 140L156.856 140.148L156.931 140.25H157.058V140ZM158.588 140V129.328H158.088V140H158.588ZM158.338 129.078H157.01V129.578H158.338V129.078ZM156.76 129.328V137.664H157.26V129.328H156.76ZM157.211 137.516L151.067 129.18L150.665 129.476L156.809 137.812L157.211 137.516ZM150.866 129.078H149.506V129.578H150.866V129.078ZM149.256 129.328V140H149.756V129.328H149.256ZM149.506 140.25H150.834V139.75H149.506V140.25ZM151.084 140V131.488H150.584V140H151.084ZM150.632 131.636L156.856 140.148L157.26 139.852L151.036 131.34L150.632 131.636ZM157.058 140.25H158.338V139.75H157.058V140.25ZM164.802 140V140.25H165.052V140H164.802ZM164.802 130.512V130.262H164.552V130.512H164.802ZM168.194 130.512V130.762H168.444V130.512H168.194ZM168.194 129.328H168.444V129.078H168.194V129.328ZM160.098 129.328V129.078H159.848V129.328H160.098ZM160.098 130.512H159.848V130.762H160.098V130.512ZM163.474 130.512H163.724V130.262H163.474V130.512ZM163.474 140H163.224V140.25H163.474V140ZM165.052 140V130.512H164.552V140H165.052ZM164.802 130.762H168.194V130.262H164.802V130.762ZM168.444 130.512V129.328H167.944V130.512H168.444ZM168.194 129.078H160.098V129.578H168.194V129.078ZM159.848 129.328V130.512H160.348V129.328H159.848ZM160.098 130.762H163.474V130.262H160.098V130.762ZM163.224 130.512V140H163.724V130.512H163.224ZM163.474 140.25H164.802V139.75H163.474V140.25ZM85.3602 153.064L85.5624 153.211L85.7301 152.98L85.4795 152.844L85.3602 153.064ZM84.2402 152.456L84.3595 152.236L84.1605 152.128L84.0333 152.316L84.2402 152.456ZM84.2402 146.888L84.0322 147.027L84.161 147.22L84.3632 147.106L84.2402 146.888ZM85.3442 146.264L85.4672 146.482L85.7064 146.346L85.5492 146.121L85.3442 146.264ZM81.2962 155.442C83.2799 155.442 84.6294 154.494 85.5624 153.211L85.158 152.917C84.299 154.098 83.0885 154.942 81.2962 154.942V155.442ZM85.4795 152.844L84.3595 152.236L84.1209 152.676L85.2409 153.284L85.4795 152.844ZM84.0333 152.316C83.4696 153.146 82.4254 153.758 81.2962 153.758V154.258C82.5989 154.258 83.7948 153.558 84.4471 152.596L84.0333 152.316ZM81.2962 153.758C79.1082 153.758 77.4342 152.072 77.4342 149.672H76.9342C76.9342 152.328 78.8122 154.258 81.2962 154.258V153.758ZM77.4342 149.672C77.4342 147.241 79.107 145.586 81.2962 145.586V145.086C78.8134 145.086 76.9342 146.983 76.9342 149.672H77.4342ZM81.2962 145.586C82.4274 145.586 83.4699 146.183 84.0322 147.027L84.4482 146.749C83.7945 145.769 82.597 145.086 81.2962 145.086V145.586ZM84.3632 147.106L85.4672 146.482L85.2212 146.046L84.1172 146.67L84.3632 147.106ZM85.5492 146.121C84.6612 144.848 83.277 143.902 81.2962 143.902V144.402C83.0913 144.402 84.3311 145.248 85.1391 146.407L85.5492 146.121ZM81.2962 143.902C78.0905 143.902 75.5582 146.25 75.5582 149.672H76.0582C76.0582 146.534 78.3579 144.402 81.2962 144.402V143.902ZM75.5582 149.672C75.5582 153.094 78.0905 155.442 81.2962 155.442V154.942C78.3579 154.942 76.0582 152.81 76.0582 149.672H75.5582ZM91.9167 155.442C95.2193 155.442 97.4787 152.949 97.4787 149.672H96.9787C96.9787 152.699 94.918 154.942 91.9167 154.942V155.442ZM97.4787 149.672C97.4787 146.395 95.2193 143.902 91.9167 143.902V144.402C94.918 144.402 96.9787 146.645 96.9787 149.672H97.4787ZM91.9167 143.902C88.613 143.902 86.3707 146.396 86.3707 149.672H86.8707C86.8707 146.644 88.9163 144.402 91.9167 144.402V143.902ZM86.3707 149.672C86.3707 152.948 88.613 155.442 91.9167 155.442V154.942C88.9163 154.942 86.8707 152.7 86.8707 149.672H86.3707ZM91.9167 153.758C90.7857 153.758 89.8752 153.323 89.2445 152.605C88.6111 151.884 88.2467 150.862 88.2467 149.672H87.7467C87.7467 150.962 88.1423 152.108 88.8689 152.935C89.5982 153.765 90.6476 154.258 91.9167 154.258V153.758ZM88.2467 149.672C88.2467 148.474 88.6113 147.452 89.2443 146.733C89.8746 146.018 90.7851 145.586 91.9167 145.586V145.086C90.6483 145.086 89.5988 145.574 88.8691 146.403C88.1421 147.228 87.7467 148.374 87.7467 149.672H88.2467ZM91.9167 145.586C93.0401 145.586 93.9551 146.018 94.5918 146.734C95.2309 147.453 95.6027 148.475 95.6027 149.672H96.1027C96.1027 148.373 95.6985 147.227 94.9656 146.402C94.2303 145.574 93.1773 145.086 91.9167 145.086V145.586ZM95.6027 149.672C95.6027 150.861 95.2311 151.883 94.5916 152.604C93.9545 153.323 93.0394 153.758 91.9167 153.758V154.258C93.178 154.258 94.2308 153.765 94.9658 152.936C95.6983 152.109 96.1027 150.963 96.1027 149.672H95.6027ZM109.735 155V155.25H109.985V155H109.735ZM109.735 144.328H109.985V144.078H109.735V144.328ZM107.831 144.328V144.078H107.662L107.599 144.235L107.831 144.328ZM104.519 152.552L104.287 152.646L104.52 153.22L104.751 152.645L104.519 152.552ZM101.191 144.328L101.423 144.234L101.36 144.078H101.191V144.328ZM99.2871 144.328V144.078H99.0371V144.328H99.2871ZM99.2871 155H99.0371V155.25H99.2871V155ZM100.615 155V155.25H100.865V155H100.615ZM100.615 146.024L100.847 145.93L100.365 146.024H100.615ZM104.247 155L104.015 155.094L104.079 155.25H104.247V155ZM104.791 155V155.25H104.96L105.023 155.093L104.791 155ZM108.407 146.024H108.657L108.175 145.931L108.407 146.024ZM108.407 155H108.157V155.25H108.407V155ZM109.985 155V144.328H109.485V155H109.985ZM109.735 144.078H107.831V144.578H109.735V144.078ZM107.599 144.235L104.287 152.459L104.751 152.645L108.063 144.421L107.599 144.235ZM104.751 152.458L101.423 144.234L100.959 144.422L104.287 152.646L104.751 152.458ZM101.191 144.078H99.2871V144.578H101.191V144.078ZM99.0371 144.328V155H99.5371V144.328H99.0371ZM99.2871 155.25H100.615V154.75H99.2871V155.25ZM100.865 155V146.024H100.365V155H100.865ZM100.383 146.118L104.015 155.094L104.479 154.906L100.847 145.93L100.383 146.118ZM104.247 155.25H104.791V154.75H104.247V155.25ZM105.023 155.093L108.639 146.117L108.175 145.931L104.559 154.907L105.023 155.093ZM108.157 146.024V155H108.657V146.024H108.157ZM108.407 155.25H109.735V154.75H108.407V155.25ZM113.553 155V155.25H113.803V155H113.553ZM113.553 150.76V150.51H113.303V150.76H113.553ZM112.225 144.328V144.078H111.975V144.328H112.225ZM112.225 155H111.975V155.25H112.225V155ZM113.553 149.576H113.303V149.826H113.553V149.576ZM113.553 145.512V145.262H113.303V145.512H113.553ZM113.803 155V150.76H113.303V155H113.803ZM113.553 151.01H116.513V150.51H113.553V151.01ZM116.513 151.01C117.637 151.01 118.54 150.62 119.162 149.98C119.782 149.343 120.107 148.474 120.107 147.544H119.607C119.607 148.358 119.323 149.097 118.803 149.632C118.285 150.164 117.516 150.51 116.513 150.51V151.01ZM120.107 147.544C120.107 146.615 119.786 145.746 119.168 145.108C118.548 144.468 117.645 144.078 116.513 144.078V144.578C117.525 144.578 118.293 144.924 118.809 145.456C119.327 145.99 119.607 146.729 119.607 147.544H120.107ZM116.513 144.078H112.225V144.578H116.513V144.078ZM111.975 144.328V155H112.475V144.328H111.975ZM112.225 155.25H113.553V154.75H112.225V155.25ZM116.353 149.326H113.553V149.826H116.353V149.326ZM113.803 149.576V145.512H113.303V149.576H113.803ZM113.553 145.762H116.353V145.262H113.553V145.762ZM116.353 145.762C116.929 145.762 117.396 145.951 117.718 146.259C118.038 146.566 118.231 147.006 118.231 147.544H118.731C118.731 146.882 118.491 146.306 118.063 145.897C117.637 145.489 117.04 145.262 116.353 145.262V145.762ZM118.231 147.544C118.231 148.082 118.038 148.522 117.718 148.829C117.396 149.137 116.929 149.326 116.353 149.326V149.826C117.04 149.826 117.637 149.599 118.063 149.191C118.491 148.782 118.731 148.206 118.731 147.544H118.231ZM129.517 155V155.25H129.887L129.749 154.907L129.517 155ZM125.229 144.328L125.461 144.235L125.398 144.078H125.229V144.328ZM123.581 144.328V144.078H123.412L123.349 144.234L123.581 144.328ZM119.277 155L119.045 154.906L118.906 155.25H119.277V155ZM120.797 155V155.25H120.967L121.029 155.092L120.797 155ZM121.741 152.616V152.366H121.571L121.508 152.524L121.741 152.616ZM127.053 152.616L127.285 152.524L127.223 152.366H127.053V152.616ZM127.997 155L127.764 155.092L127.827 155.25H127.997V155ZM126.669 151.448V151.698H127.036L126.901 151.356L126.669 151.448ZM122.141 151.448L121.908 151.357L121.774 151.698H122.141V151.448ZM124.397 145.688L124.629 145.596L124.396 145.005L124.164 145.597L124.397 145.688ZM129.749 154.907L125.461 144.235L124.997 144.421L129.285 155.093L129.749 154.907ZM125.229 144.078H123.581V144.578H125.229V144.078ZM123.349 144.234L119.045 154.906L119.509 155.094L123.813 144.422L123.349 144.234ZM119.277 155.25H120.797V154.75H119.277V155.25ZM121.029 155.092L121.973 152.708L121.508 152.524L120.564 154.908L121.029 155.092ZM121.741 152.866H127.053V152.366H121.741V152.866ZM126.82 152.708L127.764 155.092L128.229 154.908L127.285 152.524L126.82 152.708ZM127.997 155.25H129.517V154.75H127.997V155.25ZM126.669 151.198H122.141V151.698H126.669V151.198ZM122.374 151.539L124.63 145.779L124.164 145.597L121.908 151.357L122.374 151.539ZM124.164 145.78L126.436 151.54L126.901 151.356L124.629 145.596L124.164 145.78ZM139.744 155V155.25H139.994V155H139.744ZM139.744 144.328H139.994V144.078H139.744V144.328ZM138.416 144.328V144.078H138.166V144.328H138.416ZM138.416 152.664L138.215 152.812L138.666 153.425V152.664H138.416ZM132.272 144.328L132.473 144.18L132.398 144.078H132.272V144.328ZM130.912 144.328V144.078H130.662V144.328H130.912ZM130.912 155H130.662V155.25H130.912V155ZM132.24 155V155.25H132.49V155H132.24ZM132.24 146.488L132.442 146.34L131.99 145.723V146.488H132.24ZM138.464 155L138.262 155.148L138.337 155.25H138.464V155ZM139.994 155V144.328H139.494V155H139.994ZM139.744 144.078H138.416V144.578H139.744V144.078ZM138.166 144.328V152.664H138.666V144.328H138.166ZM138.617 152.516L132.473 144.18L132.071 144.476L138.215 152.812L138.617 152.516ZM132.272 144.078H130.912V144.578H132.272V144.078ZM130.662 144.328V155H131.162V144.328H130.662ZM130.912 155.25H132.24V154.75H130.912V155.25ZM132.49 155V146.488H131.99V155H132.49ZM132.038 146.636L138.262 155.148L138.666 154.852L132.442 146.34L132.038 146.636ZM138.464 155.25H139.744V154.75H138.464V155.25ZM146.672 155V155.25H146.922V155H146.672ZM146.672 150.488L146.466 150.347L146.422 150.411V150.488H146.672ZM150.864 144.328L151.071 144.469L151.337 144.078H150.864V144.328ZM149.312 144.328V144.078H149.179L149.104 144.189L149.312 144.328ZM146 149.288L145.792 149.427L146 149.738L146.208 149.427L146 149.288ZM142.688 144.328L142.896 144.189L142.822 144.078H142.688V144.328ZM141.136 144.328V144.078H140.663L140.93 144.469L141.136 144.328ZM145.344 150.488H145.594V150.411L145.551 150.347L145.344 150.488ZM145.344 155H145.094V155.25H145.344V155ZM146.922 155V150.488H146.422V155H146.922ZM146.879 150.629L151.071 144.469L150.658 144.187L146.466 150.347L146.879 150.629ZM150.864 144.078H149.312V144.578H150.864V144.078ZM149.104 144.189L145.792 149.149L146.208 149.427L149.52 144.467L149.104 144.189ZM146.208 149.149L142.896 144.189L142.48 144.467L145.792 149.427L146.208 149.149ZM142.688 144.078H141.136V144.578H142.688V144.078ZM140.93 144.469L145.138 150.629L145.551 150.347L141.343 144.187L140.93 144.469ZM145.094 150.488V155H145.594V150.488H145.094ZM145.344 155.25H146.672V154.75H145.344V155.25Z" fill="black"/>
<path d="M112.765 68.6652C112.577 68.6652 112.577 68.4644 112.765 68.6652L111.827 68.0628L111.639 67.8621L89.5036 50.9968C89.5036 50.9968 89.3161 50.9968 89.3161 50.796L88.9409 50.3944L88.7533 50.1937H88.3781L82 45.375L94.5686 47.3828C95.1314 47.3828 95.319 47.5836 95.8817 47.7843C96.0693 47.7843 96.4445 47.9851 96.4445 47.9851C97.0073 48.1859 97.1949 48.3867 97.5701 48.5874C97.9453 48.7882 98.1328 48.989 98.508 49.1898C98.6956 49.3905 99.0708 49.5913 99.0708 49.7921C99.2584 49.9929 99.446 49.9929 99.6336 50.1937C100.009 50.3944 100.196 50.5952 100.196 50.796C100.759 51.3983 101.134 52.0006 101.697 52.4022L111.639 67.4605L111.827 67.6613L112.765 68.6652Z" fill="#18AAD1"/>
<path d="M112.765 91.9554L111.827 90.3492L111.639 90.1484L82.1875 45.375L88.5656 50.1937L89.6912 50.9968L111.827 67.8621H112.015L112.765 68.4644C112.765 68.4644 112.952 68.4644 112.952 68.6652L113.89 67.8621L143.717 45.375L113.703 90.3492L113.515 90.55L112.765 91.9554Z" fill="#2AD2FF"/>
<path d="M112.765 61.0353L111.827 59.4291L111.639 59.2283L104.323 48.3863L111.639 49.9925H111.827L112.765 50.1933L113.703 49.9925L120.831 48.1855L113.703 59.4291V59.6299L112.765 61.0353Z" fill="#18AAD1"/>
<path d="M143.905 45.1758L134.525 46.5812L130.961 47.1836C128.147 47.5851 125.521 49.1913 123.833 51.8014L113.89 67.0605L113.703 67.2613L112.765 68.6667L113.89 67.4621L114.078 67.2613L112.765 68.6667L138.09 49.3921L143.905 45.1758Z" fill="#18AAD1"/>
<path d="M117.455 13.4521C117.455 22.2862 103.198 26.9041 103.198 36.3406C103.01 38.5492 103.573 40.7577 104.511 42.7655C104.511 42.7655 99.0708 37.1437 99.0708 31.1204C99.0708 25.0971 104.323 16.0622 104.323 16.0622C104.323 20.0777 105.824 21.2824 107.325 21.4831H107.512C109.201 21.4831 110.139 20.0777 110.139 18.0699C110.139 16.0622 108.075 14.0544 108.075 10.0389C108.075 6.22409 112.577 0 112.577 0C115.766 4.01554 117.455 8.63341 117.455 13.4521Z" fill="#2AD2FF"/>
<path d="M113.515 45.5763C109.013 45.5763 105.636 41.7615 105.636 37.1436V36.9429C105.636 26.7032 118.955 25.6993 118.955 11.8457C119.331 12.448 122.895 17.6682 122.895 23.29C122.895 30.3172 116.704 32.1242 116.704 35.5374C116.704 36.9429 117.267 37.9468 119.143 37.9468C119.331 37.9468 119.518 37.9468 119.706 37.746C123.27 36.1398 125.709 32.5258 125.896 28.3094C125.896 28.5102 127.772 45.5763 113.515 45.5763Z" fill="#2AD2FF"/>
<path d="M119.331 37.9468C119.518 37.9468 119.706 37.9468 119.893 37.746C118.018 38.3483 111.077 40.1553 111.077 34.9351C111.077 28.5102 121.394 27.1048 121.394 21.6838C121.394 18.2706 120.644 14.8574 118.955 11.8457C119.331 12.448 122.895 17.6682 122.895 23.29C122.895 30.3172 116.704 32.1242 116.704 35.5374C116.892 36.9429 117.642 37.9468 119.331 37.9468Z" fill="#18AAD1"/>
<path d="M113.378 17.0661C113.378 22.0855 107.375 21.684 107 21.4832H107.563C109.251 21.4832 110.189 20.0778 110.189 18.07C110.189 16.0622 108.126 14.0544 108.126 10.0389C108.126 6.2241 112.628 0 112.628 0C111.127 2.61011 110.377 5.42099 110.189 8.23188C110.189 12.8498 113.378 13.2513 113.378 17.0661Z" fill="#18AAD1"/>
<path d="M110.162 105.02L105.824 101.932H111.148L112.923 96.373L114.5 101.932H119.824L115.486 105.02L117.063 110.373L112.725 107.079L108.19 110.373L110.162 105.02Z" fill="#2AD2FF"/>
<path d="M133.338 105.02L129 101.932H134.324L136.099 96.373L137.676 101.932H143L138.662 105.02L140.239 110.373L135.901 107.079L131.366 110.373L133.338 105.02Z" fill="#2AD2FF"/>
<path d="M156.338 105.02L152 101.932H157.324L159.099 96.373L160.676 101.932H166L161.662 105.02L163.239 110.373L158.901 107.079L154.366 110.373L156.338 105.02Z" fill="#2AD2FF"/>
<path d="M86.338 105.02L82 101.932H87.3239L89.0986 96.373L90.6761 101.932H96L91.662 105.02L93.2394 110.373L88.9014 107.079L84.5634 110.373L86.338 105.02Z" fill="#2AD2FF"/>
<path d="M63.338 105.02L59 101.932H64.3239L66.0986 96.373L67.6761 101.932H73L68.662 105.02L70.2394 110.373L65.9014 107.079L61.5634 110.373L63.338 105.02Z" fill="#2AD2FF"/>
<path d="M168.1 160.1H58.7998V178.3H168.1V160.1Z" fill="#0460B5"/>
<path d="M67.2 151H45L49.6 160.1L45 169.2H57.3L57.4 159.3L67.2 151Z" fill="#0460B5"/>
<path d="M159.8 151H181.9L177.3 160.1L181.9 169.2H169.6V159.3L159.8 151Z" fill="#0460B5"/>
<path d="M69.8998 166C70.4998 166.3 70.9998 166.8 71.2998 167.3C71.5998 167.9 71.7998 168.6 71.7998 169.2C71.7998 169.9 71.5998 170.5 71.2998 171.1C70.9998 171.7 70.4998 172.1 69.8998 172.4C69.2998 172.7 68.5998 172.9 67.8998 172.9H64.7998V165.4H67.8998C68.5998 165.5 69.2998 165.6 69.8998 166ZM69.1998 171.4C69.5998 171.2 69.8998 170.9 70.0998 170.5C70.4998 169.7 70.4998 168.7 70.0998 167.9C69.8998 167.5 69.5998 167.2 69.1998 167C68.7998 166.8 68.3998 166.7 67.8998 166.7H66.1998V171.7H67.8998C68.2998 171.7 68.7998 171.6 69.1998 171.4Z" fill="white"/>
<path d="M73 165.5H78.5V166.7H74.5V168.6H78.1V169.8H74.5V171.7H78.7V172.9H73V165.5Z" fill="white"/>
<path d="M83.6998 166.9C83.3998 166.8 82.9998 166.7 82.5998 166.7C82.2998 166.7 81.9998 166.8 81.7998 166.9C81.5998 167 81.4998 167.2 81.4998 167.4C81.4998 167.6 81.5998 167.8 81.6998 167.9C81.7998 168 81.9998 168.2 82.1998 168.2C82.4998 168.3 82.7998 168.4 83.0998 168.5C83.4998 168.6 83.8998 168.8 84.2998 168.9C84.5998 169.1 84.8998 169.3 85.0998 169.6C85.2998 169.9 85.4998 170.3 85.3998 170.8C85.3998 171.2 85.2998 171.7 84.9998 172C84.6998 172.3 84.3998 172.6 83.9998 172.8C83.4998 173 82.9998 173.1 82.4998 173.1C81.8998 173.1 81.2998 173 80.7998 172.8C80.2998 172.6 79.7998 172.3 79.2998 171.9L79.8998 170.7C80.2998 171 80.6998 171.3 81.1998 171.5C81.5998 171.7 82.0998 171.8 82.4998 171.8C82.7998 171.8 83.1998 171.7 83.3998 171.6C83.7998 171.4 83.7998 170.9 83.5998 170.5L83.4998 170.4C83.2998 170.3 83.1998 170.1 82.9998 170.1C82.7998 170 82.4998 169.9 82.0998 169.8C81.6998 169.7 81.2998 169.5 80.8998 169.4C80.5998 169.3 80.2998 169 80.0998 168.8C79.8998 168.5 79.6998 168.1 79.7998 167.7C79.7998 167.3 79.8998 166.9 80.0998 166.6C80.3998 166.3 80.6998 166 81.0998 165.8C81.5998 165.6 82.0998 165.5 82.5998 165.5C83.0998 165.5 83.5998 165.6 83.9998 165.7C84.3998 165.8 84.8998 166 85.2998 166.3L84.6998 167.5C84.4998 167.2 84.0998 167 83.6998 166.9Z" fill="white"/>
<path d="M86.8999 165.5H88.2999V173H86.8999V165.5Z" fill="white"/>
<path d="M95.2 169.2H96.4V172.1C96 172.4 95.5 172.6 95 172.8C94.5 173 94 173.1 93.4 173.1C92.7 173.1 92 172.9 91.4 172.6C90.8 172.3 90.3 171.8 90 171.2C89.6 170.6 89.5 169.9 89.5 169.2C89.5 168.5 89.7 167.8 90 167.3C90.4 166.7 90.9 166.2 91.5 165.9C92.1 165.6 92.8 165.4 93.5 165.4C94 165.4 94.6 165.5 95.1 165.7C95.6 165.9 96.1 166.1 96.4 166.5L95.6 167.6C95.3 167.3 95 167.1 94.6 167C94.2 166.9 93.9 166.8 93.5 166.8C93 166.8 92.6 166.9 92.2 167.1C91 167.8 90.6 169.4 91.3 170.6C91.8 171.4 92.6 171.9 93.5 171.9C93.8 171.9 94 171.9 94.3 171.8C94.6 171.7 94.9 171.6 95.1 171.4L95.2 169.2Z" fill="white"/>
<path d="M103.4 165.5H104.8V173H103.5L99.6002 167.8V173H98.2002V165.5H99.6002L103.5 170.7L103.4 165.5Z" fill="white"/>
<path d="M111.3 173L110 170.8H108V173H106.6V165.5H109.7C110.5 165.4 111.3 165.7 112 166.1C112.5 166.6 112.8 167.3 112.8 168C112.8 168.5 112.7 169 112.4 169.5C112.1 169.9 111.7 170.2 111.3 170.4L113 172.9L111.3 173ZM108 169.5H109.7C110.2 169.5 110.6 169.4 111 169.1C111.3 168.8 111.4 168.5 111.4 168.1C111.4 167.7 111.3 167.3 111 167.1C110.6 166.9 110.2 166.7 109.8 166.8H108V169.5Z" fill="white"/>
<path d="M116.1 171.3C116.5 171.6 117 171.8 117.4 171.8C117.9 171.8 118.4 171.6 118.7 171.3C119 170.9 119.2 170.4 119.2 169.9V165.5H120.6V169.9C120.6 170.5 120.5 171.1 120.2 171.6C119.9 172.1 119.5 172.5 119.1 172.7C118.6 173 118 173.1 117.4 173.1C116.8 173.1 116.2 173 115.6 172.7C115.1 172.5 114.7 172.1 114.5 171.6C114.2 171.1 114.1 170.5 114.1 169.9V165.5H115.5V169.9C115.6 170.4 115.8 170.9 116.1 171.3Z" fill="white"/>
<path d="M126 166.9C125.7 166.8 125.3 166.7 124.9 166.7C124.6 166.7 124.3 166.8 124.1 166.9C123.9 167 123.8 167.2 123.8 167.4C123.8 167.6 123.9 167.8 124 167.9C124.1 168 124.3 168.2 124.5 168.2C124.8 168.3 125.1 168.4 125.4 168.5C125.8 168.6 126.2 168.8 126.6 168.9C126.9 169.1 127.2 169.3 127.4 169.6C127.6 169.9 127.8 170.3 127.7 170.8C127.7 171.2 127.6 171.7 127.3 172C127 172.3 126.7 172.6 126.3 172.8C125.8 173 125.3 173.1 124.8 173.1C124.2 173.1 123.6 173 123.1 172.8C122.6 172.6 122.1 172.3 121.6 171.9L122.2 170.7C122.6 171 123 171.3 123.5 171.5C123.9 171.7 124.4 171.8 124.8 171.8C125.1 171.8 125.5 171.7 125.7 171.6C126.1 171.4 126.1 170.9 125.9 170.5L125.8 170.4C125.6 170.3 125.5 170.1 125.3 170.1C125.1 170 124.8 169.9 124.4 169.8C124 169.7 123.6 169.5 123.2 169.4C122.9 169.3 122.6 169 122.4 168.8C122.2 168.5 122 168.1 122.1 167.7C122.1 167.3 122.2 166.9 122.4 166.6C122.7 166.3 123 166 123.4 165.8C123.9 165.6 124.4 165.5 124.9 165.5C125.4 165.5 125.9 165.6 126.3 165.7C126.7 165.8 127.2 166 127.6 166.3L127 167.5C126.8 167.2 126.4 167 126 166.9Z" fill="white"/>
<path d="M129.2 165.5H130.6V168.7H134.3V165.5H135.7V173H134.3V170H130.6V173H129.2V165.5Z" fill="white"/>
<path d="M138.4 171.7C138.5 171.8 138.6 172 138.6 172.3C138.6 172.5 138.5 172.7 138.4 172.9C138.3 173 138.1 173.1 137.9 173.1C137.7 173.1 137.5 173 137.4 172.9C137.3 172.7 137.2 172.5 137.2 172.3C137.2 172.1 137.3 171.9 137.4 171.7C137.5 171.6 137.7 171.5 137.9 171.5C138.1 171.5 138.3 171.6 138.4 171.7Z" fill="white"/>
<path d="M142.4 168.399C142 168.399 141.6 168.599 141.3 168.899C141 169.199 140.9 169.699 140.9 170.099C140.9 170.599 141 170.999 141.3 171.299C141.6 171.599 142 171.799 142.4 171.799C143 171.799 143.6 171.599 143.9 171.099L144.8 171.799C144.5 172.199 144.2 172.499 143.8 172.699C143.3 172.899 142.8 172.999 142.3 172.999C141.8 172.999 141.3 172.899 140.8 172.599C140.4 172.399 140 171.999 139.8 171.599C139.3 170.699 139.3 169.499 139.8 168.599C140 168.199 140.4 167.799 140.8 167.599C141.3 167.399 141.8 167.199 142.3 167.199C142.8 167.199 143.3 167.299 143.7 167.499C144.1 167.699 144.4 167.899 144.7 168.299L143.9 169.099C143.6 168.699 143 168.399 142.4 168.399Z" fill="white"/>
<path d="M149.9 167.599C150.3 167.799 150.7 168.199 151 168.599C151.3 169.099 151.4 169.599 151.4 170.099C151.4 170.599 151.3 171.199 151 171.599C150.7 171.999 150.4 172.399 149.9 172.599C149.4 172.799 148.9 172.999 148.3 172.999C147.7 172.999 147.2 172.899 146.7 172.599C146.3 172.399 145.9 171.999 145.6 171.599C145.3 171.099 145.2 170.599 145.2 170.099C145.2 169.599 145.3 168.999 145.6 168.599C145.9 168.199 146.2 167.799 146.7 167.599C147.2 167.299 147.7 167.199 148.3 167.199C148.9 167.199 149.4 167.299 149.9 167.599ZM147.2 168.899C146.6 169.599 146.6 170.699 147.2 171.399C147.5 171.699 147.9 171.899 148.4 171.899C148.8 171.899 149.3 171.699 149.6 171.399C150.2 170.699 150.2 169.599 149.6 168.899C149.3 168.599 148.9 168.399 148.4 168.399C147.9 168.399 147.5 168.499 147.2 168.899Z" fill="white"/>
<path d="M161.6 167.8C162 168.2 162.2 168.8 162.2 169.4V173H160.8V169.8C160.8 169.4 160.7 169.1 160.5 168.8C160.3 168.6 159.9 168.4 159.6 168.4C159.2 168.4 158.8 168.6 158.5 168.9C158.2 169.2 158.1 169.6 158.1 170.1V172.9H156.7V169.8C156.7 169.4 156.6 169.1 156.4 168.8C156.2 168.6 155.8 168.4 155.5 168.4C155.1 168.4 154.7 168.6 154.4 168.9C154.1 169.2 154 169.7 154.1 170.1V172.9H152.7V167.2H154.1V168.3C154.8 167.2 156.3 166.9 157.4 167.5C157.7 167.7 158 168.1 158.1 168.5C158.4 167.6 159.3 167.1 160.2 167.1C160.7 167.1 161.2 167.4 161.6 167.8Z" fill="white"/>
<path d="M104.888 193V192.112H100.964C103.196 190.348 104.852 188.86 104.852 187.228C104.852 185.632 103.496 184.876 102.164 184.876C101.036 184.876 99.9921 185.32 99.3801 186.136L99.9921 186.772C100.46 186.172 101.204 185.764 102.164 185.764C102.992 185.764 103.844 186.196 103.844 187.228C103.844 188.608 102.272 189.94 99.3921 192.196V193H104.888ZM109.471 193.144C111.655 193.144 112.531 190.948 112.531 189.004C112.531 187.048 111.655 184.876 109.471 184.876C107.275 184.876 106.411 187.048 106.411 189.004C106.411 190.948 107.275 193.144 109.471 193.144ZM109.471 192.256C107.947 192.256 107.431 190.6 107.431 189.004C107.431 187.408 107.947 185.764 109.471 185.764C110.995 185.764 111.511 187.408 111.511 189.004C111.511 190.6 110.995 192.256 109.471 192.256ZM119.29 193V192.112H115.366C117.598 190.348 119.254 188.86 119.254 187.228C119.254 185.632 117.898 184.876 116.566 184.876C115.438 184.876 114.394 185.32 113.782 186.136L114.394 186.772C114.862 186.172 115.606 185.764 116.566 185.764C117.394 185.764 118.246 186.196 118.246 187.228C118.246 188.608 116.674 189.94 113.794 192.196V193H119.29ZM126.345 193V192.112H122.421C124.653 190.348 126.309 188.86 126.309 187.228C126.309 185.632 124.953 184.876 123.621 184.876C122.493 184.876 121.449 185.32 120.837 186.136L121.449 186.772C121.917 186.172 122.661 185.764 123.621 185.764C124.449 185.764 125.301 186.196 125.301 187.228C125.301 188.608 123.729 189.94 120.849 192.196V193H126.345Z" fill="black"/>
<path d="M104.888 193V193.25H105.138V193H104.888ZM104.888 192.112H105.138V191.862H104.888V192.112ZM100.964 192.112L100.809 191.916L100.245 192.362H100.964V192.112ZM99.3801 186.136L99.1801 185.986L99.0526 186.156L99.2 186.309L99.3801 186.136ZM99.9921 186.772L99.812 186.945L100.012 187.153L100.189 186.926L99.9921 186.772ZM99.3921 192.196L99.238 191.999L99.1421 192.074V192.196H99.3921ZM99.3921 193H99.1421V193.25H99.3921V193ZM105.138 193V192.112H104.638V193H105.138ZM104.888 191.862H100.964V192.362H104.888V191.862ZM101.119 192.308C102.235 191.427 103.224 190.601 103.934 189.785C104.643 188.969 105.102 188.132 105.102 187.228H104.602C104.602 187.956 104.233 188.679 103.557 189.456C102.881 190.233 101.926 191.033 100.809 191.916L101.119 192.308ZM105.102 187.228C105.102 186.35 104.725 185.69 104.16 185.255C103.602 184.827 102.874 184.626 102.164 184.626V185.126C102.787 185.126 103.402 185.303 103.855 185.652C104.301 185.994 104.602 186.51 104.602 187.228H105.102ZM102.164 184.626C100.975 184.626 99.8489 185.094 99.1801 185.986L99.5801 186.286C100.135 185.546 101.097 185.126 102.164 185.126V184.626ZM99.2 186.309L99.812 186.945L100.172 186.599L99.5603 185.963L99.2 186.309ZM100.189 186.926C100.609 186.387 101.28 186.014 102.164 186.014V185.514C101.128 185.514 100.311 185.957 99.795 186.618L100.189 186.926ZM102.164 186.014C102.539 186.014 102.902 186.113 103.165 186.309C103.418 186.499 103.594 186.791 103.594 187.228H104.094C104.094 186.633 103.844 186.193 103.464 185.909C103.094 185.631 102.617 185.514 102.164 185.514V186.014ZM103.594 187.228C103.594 187.818 103.259 188.435 102.517 189.211C101.779 189.983 100.681 190.869 99.238 191.999L99.5463 192.393C100.983 191.267 102.111 190.359 102.879 189.556C103.643 188.757 104.094 188.018 104.094 187.228H103.594ZM99.1421 192.196V193H99.6421V192.196H99.1421ZM99.3921 193.25H104.888V192.75H99.3921V193.25ZM109.471 193.394C110.663 193.394 111.502 192.788 112.032 191.935C112.556 191.092 112.781 190.008 112.781 189.004H112.281C112.281 189.944 112.068 190.93 111.607 191.671C111.153 192.402 110.462 192.894 109.471 192.894V193.394ZM112.781 189.004C112.781 187.994 112.556 186.912 112.032 186.074C111.502 185.225 110.662 184.626 109.471 184.626V185.126C110.464 185.126 111.154 185.613 111.608 186.339C112.068 187.076 112.281 188.058 112.281 189.004H112.781ZM109.471 184.626C108.274 184.626 107.434 185.225 106.905 186.074C106.383 186.913 106.161 187.995 106.161 189.004H106.661C106.661 188.057 106.871 187.075 107.33 186.339C107.781 185.613 108.472 185.126 109.471 185.126V184.626ZM106.161 189.004C106.161 190.007 106.383 191.092 106.905 191.935C107.433 192.788 108.273 193.394 109.471 193.394V192.894C108.473 192.894 107.782 192.402 107.33 191.671C106.871 190.93 106.661 189.945 106.661 189.004H106.161ZM109.471 192.006C108.823 192.006 108.388 191.664 108.101 191.113C107.808 190.549 107.681 189.782 107.681 189.004H107.181C107.181 189.822 107.312 190.681 107.658 191.344C108.01 192.02 108.595 192.506 109.471 192.506V192.006ZM107.681 189.004C107.681 188.226 107.808 187.462 108.101 186.901C108.387 186.354 108.822 186.014 109.471 186.014V185.514C108.596 185.514 108.01 185.996 107.658 186.67C107.312 187.33 107.181 188.186 107.181 189.004H107.681ZM109.471 186.014C110.12 186.014 110.554 186.354 110.841 186.901C111.134 187.462 111.261 188.226 111.261 189.004H111.761C111.761 188.186 111.63 187.33 111.284 186.67C110.931 185.996 110.346 185.514 109.471 185.514V186.014ZM111.261 189.004C111.261 189.782 111.134 190.549 110.841 191.113C110.554 191.664 110.119 192.006 109.471 192.006V192.506C110.347 192.506 110.932 192.02 111.284 191.344C111.63 190.681 111.761 189.822 111.761 189.004H111.261ZM119.29 193V193.25H119.54V193H119.29ZM119.29 192.112H119.54V191.862H119.29V192.112ZM115.366 192.112L115.211 191.916L114.647 192.362H115.366V192.112ZM113.782 186.136L113.582 185.986L113.455 186.156L113.602 186.309L113.782 186.136ZM114.394 186.772L114.214 186.945L114.414 187.153L114.592 186.926L114.394 186.772ZM113.794 192.196L113.64 191.999L113.544 192.074V192.196H113.794ZM113.794 193H113.544V193.25H113.794V193ZM119.54 193V192.112H119.04V193H119.54ZM119.29 191.862H115.366V192.362H119.29V191.862ZM115.521 192.308C116.637 191.427 117.626 190.601 118.336 189.785C119.045 188.969 119.504 188.132 119.504 187.228H119.004C119.004 187.956 118.636 188.679 117.959 189.456C117.283 190.233 116.328 191.033 115.211 191.916L115.521 192.308ZM119.504 187.228C119.504 186.35 119.127 185.69 118.562 185.255C118.005 184.827 117.276 184.626 116.566 184.626V185.126C117.189 185.126 117.804 185.303 118.258 185.652C118.704 185.994 119.004 186.51 119.004 187.228H119.504ZM116.566 184.626C115.377 184.626 114.251 185.094 113.582 185.986L113.982 186.286C114.538 185.546 115.5 185.126 116.566 185.126V184.626ZM113.602 186.309L114.214 186.945L114.575 186.599L113.963 185.963L113.602 186.309ZM114.592 186.926C115.012 186.387 115.683 186.014 116.566 186.014V185.514C115.53 185.514 114.713 185.957 114.197 186.618L114.592 186.926ZM116.566 186.014C116.942 186.014 117.305 186.113 117.567 186.309C117.82 186.499 117.996 186.791 117.996 187.228H118.496C118.496 186.633 118.246 186.193 117.867 185.909C117.496 185.631 117.019 185.514 116.566 185.514V186.014ZM117.996 187.228C117.996 187.818 117.661 188.435 116.92 189.211C116.181 189.983 115.083 190.869 113.64 191.999L113.949 192.393C115.385 191.267 116.513 190.359 117.281 189.556C118.046 188.757 118.496 188.018 118.496 187.228H117.996ZM113.544 192.196V193H114.044V192.196H113.544ZM113.794 193.25H119.29V192.75H113.794V193.25ZM126.345 193V193.25H126.595V193H126.345ZM126.345 192.112H126.595V191.862H126.345V192.112ZM122.421 192.112L122.266 191.916L121.702 192.362H122.421V192.112ZM120.837 186.136L120.637 185.986L120.51 186.156L120.657 186.309L120.837 186.136ZM121.449 186.772L121.269 186.945L121.469 187.153L121.646 186.926L121.449 186.772ZM120.849 192.196L120.695 191.999L120.599 192.074V192.196H120.849ZM120.849 193H120.599V193.25H120.849V193ZM126.595 193V192.112H126.095V193H126.595ZM126.345 191.862H122.421V192.362H126.345V191.862ZM122.576 192.308C123.692 191.427 124.681 190.601 125.391 189.785C126.1 188.969 126.559 188.132 126.559 187.228H126.059C126.059 187.956 125.69 188.679 125.014 189.456C124.338 190.233 123.383 191.033 122.266 191.916L122.576 192.308ZM126.559 187.228C126.559 186.35 126.182 185.69 125.617 185.255C125.059 184.827 124.331 184.626 123.621 184.626V185.126C124.244 185.126 124.859 185.303 125.312 185.652C125.758 185.994 126.059 186.51 126.059 187.228H126.559ZM123.621 184.626C122.432 184.626 121.306 185.094 120.637 185.986L121.037 186.286C121.592 185.546 122.554 185.126 123.621 185.126V184.626ZM120.657 186.309L121.269 186.945L121.629 186.599L121.017 185.963L120.657 186.309ZM121.646 186.926C122.066 186.387 122.737 186.014 123.621 186.014V185.514C122.585 185.514 121.768 185.957 121.252 186.618L121.646 186.926ZM123.621 186.014C123.996 186.014 124.359 186.113 124.622 186.309C124.875 186.499 125.051 186.791 125.051 187.228H125.551C125.551 186.633 125.301 186.193 124.922 185.909C124.551 185.631 124.074 185.514 123.621 185.514V186.014ZM125.051 187.228C125.051 187.818 124.716 188.435 123.974 189.211C123.236 189.983 122.138 190.869 120.695 191.999L121.003 192.393C122.44 191.267 123.568 190.359 124.336 189.556C125.1 188.757 125.551 188.018 125.551 187.228H125.051ZM120.599 192.196V193H121.099V192.196H120.599ZM120.849 193.25H126.345V192.75H120.849V193.25Z" fill="black"/>
<line x1="77" y1="189.5" x2="92" y2="189.5" stroke="black"/>
<line x1="134" y1="189.5" x2="149" y2="189.5" stroke="black"/>
</svg>
